# xmcd
#
# Track frame offsets:
#	150
#	14216
#	32290
#	46117
#	62846
#	77235
#	91507
#	106380
#	120986
#	134083
#	150137
#	163850
#
# Disc length: 2435 seconds
#
# Revision: 0
# Processed by: cddbd v1.4PL0 Copyright (c) Steve Scherf et al.
# Submitted via: audiograbber 1.80
#
DISCID=8b09810c
DTITLE=Arvingarna - Räck Mig Din Hand
DYEAR=1900
DGENRE=
TTITLE0=Eloise
TTITLE1=Jeannie
TTITLE2=Ny Tjej I Stan
TTITLE3=Och Hon Sa
TTITLE4=Coola Killar
TTITLE5=Samma Ensamma Jag
TTITLE6=Ring Om Du Vill Nånting
TTITLE7=Sången Till Jennifer
TTITLE8=Kung I Stan
TTITLE9=Angelina
TTITLE10=Tjejer
TTITLE11=Räck Mig Din Hand
EXTD=
EXTT0=
EXTT1=
EXTT2=
EXTT3=
EXTT4=
EXTT5=
EXTT6=
EXTT7=
EXTT8=
EXTT9=
EXTT10=
EXTT11=
PLAYORDER=
